{
	"patcher" : 	{
		"fileversion" : 1,
		"appversion" : 		{
			"major" : 7,
			"minor" : 2,
			"revision" : 3,
			"architecture" : "x86",
			"modernui" : 1
		}
,
		"rect" : [ 104.0, 269.0, 695.0, 480.0 ],
		"bglocked" : 0,
		"openinpresentation" : 0,
		"default_fontsize" : 12.0,
		"default_fontface" : 0,
		"default_fontname" : "Arial",
		"gridonopen" : 1,
		"gridsize" : [ 15.0, 15.0 ],
		"gridsnaponopen" : 1,
		"objectsnaponopen" : 1,
		"statusbarvisible" : 2,
		"toolbarvisible" : 1,
		"lefttoolbarpinned" : 0,
		"toptoolbarpinned" : 0,
		"righttoolbarpinned" : 0,
		"bottomtoolbarpinned" : 0,
		"toolbars_unpinned_last_save" : 0,
		"tallnewobj" : 0,
		"boxanimatetime" : 200,
		"enablehscroll" : 1,
		"enablevscroll" : 1,
		"devicewidth" : 0.0,
		"description" : "",
		"digest" : "",
		"tags" : "",
		"style" : "",
		"subpatcher_template" : "",
		"boxes" : [ 			{
				"box" : 				{
					"id" : "obj-9",
					"maxclass" : "message",
					"numinlets" : 2,
					"numoutlets" : 1,
					"outlettype" : [ "" ],
					"patching_rect" : [ 201.0, 91.0, 103.0, 22.0 ],
					"style" : "",
					"text" : "read blading.mov"
				}

			}
, 			{
				"box" : 				{
					"clipheight" : 51.0,
					"data" : 					{
						"clips" : [ 							{
								"filename" : "chickens.mp4",
								"filekind" : "moviefile",
								"selection" : [ 0.0, 1.0 ],
								"loop" : 1,
								"content_state" : 								{
									"outputmode" : [ 1 ],
									"out_name" : [ "u322000549" ],
									"dim" : [ 1, 1 ],
									"unique" : [ 0 ],
									"looppoints" : [ 0, 0 ],
									"loopreport" : [ 0 ],
									"fps" : [ 0.0 ],
									"adapt" : [ 1 ],
									"engine" : [ "qt" ],
									"interp" : [ 0 ],
									"time" : [ 0 ],
									"timescale" : [ 600 ],
									"drawto" : [ "" ],
									"automatic" : [ 0 ],
									"dstrect" : [ 0, 0, 1, 1 ],
									"loopend" : [ 0 ],
									"moviefile" : [ "" ],
									"output_texture" : [ 0 ],
									"time_secs" : [ 0.0 ],
									"autostart" : [ 1 ],
									"framereport" : [ 0 ],
									"framecount" : [ 0 ],
									"cache_size" : [ 0.1 ],
									"position" : [ 0.0 ],
									"colormode" : [ "argb" ],
									"usesrcrect" : [ 0 ],
									"usedstrect" : [ 0 ],
									"rate" : [ 1.0 ],
									"duration" : [  ],
									"srcrect" : [ 0, 0, 1, 1 ],
									"vol" : [ 1.0 ],
									"loopstart" : [ 0 ],
									"texture_name" : [ "u097000542" ],
									"editduration" : [  ],
									"id3artist" : [ "" ],
									"id3track" : [ "" ],
									"soc" : [ "" ],
									"singlefield" : [ 1 ],
									"voc_sound_mode" : [ 0 ],
									"vrnode" : [ 0 ],
									"acodec" : [ "" ],
									"edittime" : [ 0 ],
									"id3comment" : [ "" ],
									"id3url" : [ "" ],
									"codecquality" : [ "normal" ],
									"voc" : [ 0 ],
									"window" : [ "" ],
									"vrpan" : [ 0.0 ],
									"exporter" : [ 0 ],
									"id3date" : [ "" ],
									"timecodevis" : [ 0 ],
									"vocmode" : [ 0 ],
									"vrquality" : [ 0 ],
									"editmode" : [ 0 ],
									"moviename" : [ "" ],
									"codec" : [ "" ],
									"highquality" : [ 1 ],
									"id3encoder" : [ "" ],
									"poster" : [ 0 ],
									"use_movie_loop" : [ 0 ],
									"vrcorrection" : [ 0 ],
									"vrtilt" : [ 0.0 ],
									"deinterlace" : [ 1 ],
									"id3album" : [ "" ],
									"id3name" : [ "" ],
									"preroll" : [ 0 ],
									"usemovieloop" : [ 0 ],
									"vrfov" : [ 0.0 ],
									"autosave" : [ 0 ]
								}

							}
 ]
					}
,
					"id" : "obj-8",
					"maxclass" : "jit.playlist",
					"numinlets" : 1,
					"numoutlets" : 3,
					"outlettype" : [ "jit_matrix", "", "dictionary" ],
					"patching_rect" : [ 68.0, 7.0, 258.0, 52.0 ],
					"style" : ""
				}

			}
, 			{
				"box" : 				{
					"id" : "obj-22",
					"maxclass" : "message",
					"numinlets" : 2,
					"numoutlets" : 1,
					"outlettype" : [ "" ],
					"patching_rect" : [ 158.0, 91.0, 35.0, 22.0 ],
					"style" : "",
					"text" : "read"
				}

			}
, 			{
				"box" : 				{
					"id" : "obj-16",
					"maxclass" : "message",
					"numinlets" : 2,
					"numoutlets" : 1,
					"outlettype" : [ "" ],
					"patching_rect" : [ 412.0, 91.0, 47.0, 22.0 ],
					"style" : "",
					"text" : "jump 5"
				}

			}
, 			{
				"box" : 				{
					"id" : "obj-11",
					"maxclass" : "message",
					"numinlets" : 2,
					"numoutlets" : 1,
					"outlettype" : [ "" ],
					"patching_rect" : [ 370.0, 91.0, 33.0, 22.0 ],
					"style" : "",
					"text" : "stop"
				}

			}
, 			{
				"box" : 				{
					"id" : "obj-10",
					"maxclass" : "message",
					"numinlets" : 2,
					"numoutlets" : 1,
					"outlettype" : [ "" ],
					"patching_rect" : [ 323.0, 91.0, 34.0, 22.0 ],
					"style" : "",
					"text" : "start"
				}

			}
, 			{
				"box" : 				{
					"id" : "obj-6",
					"maxclass" : "newobj",
					"numinlets" : 1,
					"numoutlets" : 2,
					"outlettype" : [ "jit_matrix", "" ],
					"patching_rect" : [ 158.0, 134.0, 55.0, 22.0 ],
					"style" : "",
					"text" : "jit.movie"
				}

			}
, 			{
				"box" : 				{
					"id" : "obj-3",
					"maxclass" : "jit.pwindow",
					"numinlets" : 1,
					"numoutlets" : 2,
					"outlettype" : [ "", "" ],
					"patching_rect" : [ 158.0, 180.0, 237.0, 147.0 ]
				}

			}
, 			{
				"box" : 				{
					"id" : "obj-5",
					"maxclass" : "toggle",
					"numinlets" : 1,
					"numoutlets" : 1,
					"outlettype" : [ "int" ],
					"parameter_enable" : 0,
					"patching_rect" : [ 8.0, 7.0, 52.0, 52.0 ],
					"style" : ""
				}

			}
, 			{
				"box" : 				{
					"id" : "obj-4",
					"maxclass" : "newobj",
					"numinlets" : 1,
					"numoutlets" : 3,
					"outlettype" : [ "", "bang", "" ],
					"patching_rect" : [ 8.0, 158.0, 106.0, 22.0 ],
					"style" : "",
					"text" : "jit.world myworld1"
				}

			}
 ],
		"lines" : [ 			{
				"patchline" : 				{
					"destination" : [ "obj-6", 0 ],
					"disabled" : 0,
					"hidden" : 0,
					"source" : [ "obj-10", 0 ]
				}

			}
, 			{
				"patchline" : 				{
					"destination" : [ "obj-6", 0 ],
					"disabled" : 0,
					"hidden" : 0,
					"source" : [ "obj-11", 0 ]
				}

			}
, 			{
				"patchline" : 				{
					"destination" : [ "obj-6", 0 ],
					"disabled" : 0,
					"hidden" : 0,
					"source" : [ "obj-16", 0 ]
				}

			}
, 			{
				"patchline" : 				{
					"destination" : [ "obj-6", 0 ],
					"disabled" : 0,
					"hidden" : 0,
					"source" : [ "obj-22", 0 ]
				}

			}
, 			{
				"patchline" : 				{
					"destination" : [ "obj-4", 0 ],
					"disabled" : 0,
					"hidden" : 0,
					"source" : [ "obj-5", 0 ]
				}

			}
, 			{
				"patchline" : 				{
					"destination" : [ "obj-3", 0 ],
					"disabled" : 0,
					"hidden" : 0,
					"source" : [ "obj-6", 0 ]
				}

			}
, 			{
				"patchline" : 				{
					"destination" : [ "obj-6", 0 ],
					"disabled" : 0,
					"hidden" : 0,
					"source" : [ "obj-9", 0 ]
				}

			}
 ],
		"dependency_cache" : [ 			{
				"name" : "chickens.mp4",
				"bootpath" : "C74:/media/jitter",
				"type" : "mpg4",
				"implicit" : 1
			}
 ],
		"autosave" : 0
	}

}
