{
	"patcher" : 	{
		"fileversion" : 1,
		"appversion" : 		{
			"major" : 7,
			"minor" : 2,
			"revision" : 3,
			"architecture" : "x86",
			"modernui" : 1
		}
,
		"rect" : [ 182.0, 275.0, 1200.0, 664.0 ],
		"bgcolor" : [ 0.572549, 0.47451, 0.447059, 1.0 ],
		"editing_bgcolor" : [ 0.572549, 0.47451, 0.447059, 1.0 ],
		"bglocked" : 0,
		"openinpresentation" : 0,
		"default_fontsize" : 12.0,
		"default_fontface" : 0,
		"default_fontname" : "Arial",
		"gridonopen" : 1,
		"gridsize" : [ 15.0, 15.0 ],
		"gridsnaponopen" : 1,
		"objectsnaponopen" : 1,
		"statusbarvisible" : 2,
		"toolbarvisible" : 1,
		"lefttoolbarpinned" : 0,
		"toptoolbarpinned" : 0,
		"righttoolbarpinned" : 0,
		"bottomtoolbarpinned" : 0,
		"toolbars_unpinned_last_save" : 0,
		"tallnewobj" : 0,
		"boxanimatetime" : 200,
		"enablehscroll" : 1,
		"enablevscroll" : 1,
		"devicewidth" : 0.0,
		"description" : "",
		"digest" : "",
		"tags" : "",
		"style" : "",
		"subpatcher_template" : "Chesterfield",
		"boxes" : [ 			{
				"box" : 				{
					"id" : "obj-32",
					"maxclass" : "number",
					"numinlets" : 1,
					"numoutlets" : 2,
					"outlettype" : [ "", "bang" ],
					"parameter_enable" : 0,
					"patching_rect" : [ 322.0, 26.0, 50.0, 22.0 ],
					"style" : ""
				}

			}
, 			{
				"box" : 				{
					"attr" : "op",
					"id" : "obj-29",
					"maxclass" : "attrui",
					"numinlets" : 1,
					"numoutlets" : 1,
					"outlettype" : [ "" ],
					"patching_rect" : [ 494.0, 145.0, 150.0, 22.0 ],
					"style" : ""
				}

			}
, 			{
				"box" : 				{
					"id" : "obj-28",
					"maxclass" : "newobj",
					"numinlets" : 2,
					"numoutlets" : 2,
					"outlettype" : [ "jit_matrix", "" ],
					"patching_rect" : [ 245.0, 285.0, 96.0, 22.0 ],
					"style" : "",
					"text" : "jit.op @op + + +"
				}

			}
, 			{
				"box" : 				{
					"id" : "obj-16",
					"maxclass" : "jit.pwindow",
					"numinlets" : 1,
					"numoutlets" : 2,
					"onscreen" : 0,
					"outlettype" : [ "", "" ],
					"patching_rect" : [ 661.0, 424.0, 160.0, 160.0 ]
				}

			}
, 			{
				"box" : 				{
					"fontname" : "Arial",
					"fontsize" : 13.0,
					"id" : "obj-12",
					"maxclass" : "newobj",
					"numinlets" : 1,
					"numoutlets" : 2,
					"outlettype" : [ "", "" ],
					"patching_rect" : [ 818.0, 152.0, 71.0, 23.0 ],
					"style" : "",
					"text" : "jit.fill bar 2"
				}

			}
, 			{
				"box" : 				{
					"fontname" : "Arial",
					"fontsize" : 13.0,
					"id" : "obj-14",
					"maxclass" : "newobj",
					"numinlets" : 1,
					"numoutlets" : 2,
					"outlettype" : [ "", "" ],
					"patching_rect" : [ 975.0, 152.0, 71.0, 23.0 ],
					"style" : "",
					"text" : "jit.fill bar 3"
				}

			}
, 			{
				"box" : 				{
					"fontname" : "Arial",
					"fontsize" : 13.0,
					"id" : "obj-22",
					"maxclass" : "newobj",
					"numinlets" : 1,
					"numoutlets" : 2,
					"outlettype" : [ "", "" ],
					"patching_rect" : [ 661.0, 152.0, 71.0, 23.0 ],
					"style" : "",
					"text" : "jit.fill bar 1"
				}

			}
, 			{
				"box" : 				{
					"bgcolor" : [ 0.588235, 0.588235, 0.980392, 1.0 ],
					"contdata" : 1,
					"id" : "obj-17",
					"maxclass" : "multislider",
					"numinlets" : 1,
					"numoutlets" : 2,
					"outlettype" : [ "", "" ],
					"parameter_enable" : 0,
					"patching_rect" : [ 975.0, 26.0, 154.0, 103.0 ],
					"peakcolor" : [ 0.498039, 0.498039, 0.498039, 1.0 ],
					"setminmax" : [ 0.0, 255.0 ],
					"setstyle" : 1,
					"settype" : 0,
					"size" : 256,
					"slidercolor" : [ 0.196078, 0.196078, 0.588235, 1.0 ],
					"style" : ""
				}

			}
, 			{
				"box" : 				{
					"bgcolor" : [ 0.588235, 0.980392, 0.588235, 1.0 ],
					"contdata" : 1,
					"id" : "obj-19",
					"maxclass" : "multislider",
					"numinlets" : 1,
					"numoutlets" : 2,
					"outlettype" : [ "", "" ],
					"parameter_enable" : 0,
					"patching_rect" : [ 818.0, 26.0, 154.0, 103.0 ],
					"peakcolor" : [ 0.498039, 0.498039, 0.498039, 1.0 ],
					"setminmax" : [ 0.0, 255.0 ],
					"setstyle" : 1,
					"settype" : 0,
					"size" : 256,
					"slidercolor" : [ 0.196078, 0.588235, 0.196078, 1.0 ],
					"style" : ""
				}

			}
, 			{
				"box" : 				{
					"bgcolor" : [ 0.980392, 0.588235, 0.588235, 1.0 ],
					"contdata" : 1,
					"id" : "obj-26",
					"maxclass" : "multislider",
					"numinlets" : 1,
					"numoutlets" : 2,
					"outlettype" : [ "", "" ],
					"parameter_enable" : 0,
					"patching_rect" : [ 656.0, 26.0, 154.0, 103.0 ],
					"peakcolor" : [ 0.498039, 0.498039, 0.498039, 1.0 ],
					"setminmax" : [ 0.0, 255.0 ],
					"setstyle" : 1,
					"settype" : 0,
					"size" : 256,
					"slidercolor" : [ 0.588235, 0.196078, 0.196078, 1.0 ],
					"style" : ""
				}

			}
, 			{
				"box" : 				{
					"fontname" : "Arial",
					"fontsize" : 13.0,
					"id" : "obj-27",
					"maxclass" : "newobj",
					"numinlets" : 1,
					"numoutlets" : 2,
					"outlettype" : [ "jit_matrix", "" ],
					"patching_rect" : [ 661.0, 200.0, 159.0, 23.0 ],
					"style" : "",
					"text" : "jit.matrix bar 4 char 16 16"
				}

			}
, 			{
				"box" : 				{
					"attr" : "op",
					"id" : "obj-1",
					"maxclass" : "attrui",
					"numinlets" : 1,
					"numoutlets" : 1,
					"outlettype" : [ "" ],
					"patching_rect" : [ 245.0, 145.0, 150.0, 22.0 ],
					"style" : ""
				}

			}
, 			{
				"box" : 				{
					"id" : "obj-25",
					"maxclass" : "jit.pwindow",
					"numinlets" : 1,
					"numoutlets" : 2,
					"outlettype" : [ "", "" ],
					"patching_rect" : [ 245.0, 424.0, 175.0, 211.0 ]
				}

			}
, 			{
				"box" : 				{
					"id" : "obj-24",
					"maxclass" : "jit.pwindow",
					"numinlets" : 1,
					"numoutlets" : 2,
					"outlettype" : [ "", "" ],
					"patching_rect" : [ 469.0, 424.0, 175.0, 211.0 ]
				}

			}
, 			{
				"box" : 				{
					"id" : "obj-23",
					"maxclass" : "newobj",
					"numinlets" : 2,
					"numoutlets" : 2,
					"outlettype" : [ "jit_matrix", "" ],
					"patching_rect" : [ 245.0, 223.0, 96.0, 22.0 ],
					"style" : "",
					"text" : "jit.op @op + + +"
				}

			}
, 			{
				"box" : 				{
					"id" : "obj-21",
					"maxclass" : "newobj",
					"numinlets" : 1,
					"numoutlets" : 2,
					"outlettype" : [ "jit_matrix", "" ],
					"patching_rect" : [ 469.0, 102.0, 115.0, 22.0 ],
					"style" : "",
					"text" : "jit.qt.movie 320 240"
				}

			}
, 			{
				"box" : 				{
					"id" : "obj-20",
					"maxclass" : "message",
					"numinlets" : 2,
					"numoutlets" : 1,
					"outlettype" : [ "" ],
					"patching_rect" : [ 469.0, 26.0, 122.0, 22.0 ],
					"style" : "",
					"text" : "read countdown.mov"
				}

			}
, 			{
				"box" : 				{
					"id" : "obj-18",
					"maxclass" : "newobj",
					"numinlets" : 2,
					"numoutlets" : 1,
					"outlettype" : [ "bang" ],
					"patching_rect" : [ 283.0, 56.0, 58.0, 22.0 ],
					"style" : "",
					"text" : "metro 40"
				}

			}
, 			{
				"box" : 				{
					"id" : "obj-15",
					"maxclass" : "toggle",
					"numinlets" : 1,
					"numoutlets" : 1,
					"outlettype" : [ "int" ],
					"parameter_enable" : 0,
					"patching_rect" : [ 283.0, 22.0, 24.0, 24.0 ],
					"style" : ""
				}

			}
, 			{
				"box" : 				{
					"id" : "obj-13",
					"maxclass" : "jit.pwindow",
					"numinlets" : 1,
					"numoutlets" : 2,
					"outlettype" : [ "", "" ],
					"patching_rect" : [ 18.0, 424.0, 175.0, 211.0 ]
				}

			}
, 			{
				"box" : 				{
					"id" : "obj-8",
					"maxclass" : "newobj",
					"numinlets" : 1,
					"numoutlets" : 2,
					"outlettype" : [ "jit_matrix", "" ],
					"patching_rect" : [ 18.0, 106.0, 115.0, 22.0 ],
					"style" : "",
					"text" : "jit.qt.movie 320 240"
				}

			}
, 			{
				"box" : 				{
					"id" : "obj-5",
					"maxclass" : "message",
					"numinlets" : 2,
					"numoutlets" : 1,
					"outlettype" : [ "" ],
					"patching_rect" : [ 18.0, 20.0, 99.0, 22.0 ],
					"style" : "",
					"text" : "read dishes.mov"
				}

			}
 ],
		"lines" : [ 			{
				"patchline" : 				{
					"destination" : [ "obj-23", 0 ],
					"disabled" : 0,
					"hidden" : 0,
					"source" : [ "obj-1", 0 ]
				}

			}
, 			{
				"patchline" : 				{
					"destination" : [ "obj-27", 0 ],
					"disabled" : 0,
					"hidden" : 0,
					"midpoints" : [ 827.5, 178.0, 670.5, 178.0 ],
					"source" : [ "obj-12", 0 ]
				}

			}
, 			{
				"patchline" : 				{
					"destination" : [ "obj-27", 0 ],
					"disabled" : 0,
					"hidden" : 0,
					"midpoints" : [ 984.5, 178.0, 670.5, 178.0 ],
					"source" : [ "obj-14", 0 ]
				}

			}
, 			{
				"patchline" : 				{
					"destination" : [ "obj-18", 0 ],
					"disabled" : 0,
					"hidden" : 0,
					"source" : [ "obj-15", 0 ]
				}

			}
, 			{
				"patchline" : 				{
					"destination" : [ "obj-14", 0 ],
					"disabled" : 0,
					"hidden" : 0,
					"midpoints" : [ 984.5, 146.0, 984.5, 146.0 ],
					"source" : [ "obj-17", 0 ]
				}

			}
, 			{
				"patchline" : 				{
					"destination" : [ "obj-21", 0 ],
					"disabled" : 0,
					"hidden" : 0,
					"source" : [ "obj-18", 0 ]
				}

			}
, 			{
				"patchline" : 				{
					"destination" : [ "obj-8", 0 ],
					"disabled" : 0,
					"hidden" : 0,
					"source" : [ "obj-18", 0 ]
				}

			}
, 			{
				"patchline" : 				{
					"destination" : [ "obj-12", 0 ],
					"disabled" : 0,
					"hidden" : 0,
					"midpoints" : [ 827.5, 146.0, 827.5, 146.0 ],
					"source" : [ "obj-19", 0 ]
				}

			}
, 			{
				"patchline" : 				{
					"destination" : [ "obj-21", 0 ],
					"disabled" : 0,
					"hidden" : 0,
					"source" : [ "obj-20", 0 ]
				}

			}
, 			{
				"patchline" : 				{
					"destination" : [ "obj-23", 1 ],
					"disabled" : 0,
					"hidden" : 0,
					"source" : [ "obj-21", 0 ]
				}

			}
, 			{
				"patchline" : 				{
					"destination" : [ "obj-24", 0 ],
					"disabled" : 0,
					"hidden" : 0,
					"source" : [ "obj-21", 0 ]
				}

			}
, 			{
				"patchline" : 				{
					"destination" : [ "obj-27", 0 ],
					"disabled" : 0,
					"hidden" : 0,
					"source" : [ "obj-22", 0 ]
				}

			}
, 			{
				"patchline" : 				{
					"destination" : [ "obj-28", 0 ],
					"disabled" : 0,
					"hidden" : 0,
					"source" : [ "obj-23", 0 ]
				}

			}
, 			{
				"patchline" : 				{
					"destination" : [ "obj-22", 0 ],
					"disabled" : 0,
					"hidden" : 0,
					"midpoints" : [ 665.5, 146.0, 670.5, 146.0 ],
					"source" : [ "obj-26", 0 ]
				}

			}
, 			{
				"patchline" : 				{
					"destination" : [ "obj-16", 0 ],
					"disabled" : 0,
					"hidden" : 0,
					"source" : [ "obj-27", 0 ]
				}

			}
, 			{
				"patchline" : 				{
					"destination" : [ "obj-28", 1 ],
					"disabled" : 0,
					"hidden" : 0,
					"source" : [ "obj-27", 0 ]
				}

			}
, 			{
				"patchline" : 				{
					"destination" : [ "obj-25", 0 ],
					"disabled" : 0,
					"hidden" : 0,
					"source" : [ "obj-28", 0 ]
				}

			}
, 			{
				"patchline" : 				{
					"destination" : [ "obj-28", 0 ],
					"disabled" : 0,
					"hidden" : 0,
					"source" : [ "obj-29", 0 ]
				}

			}
, 			{
				"patchline" : 				{
					"destination" : [ "obj-18", 1 ],
					"disabled" : 0,
					"hidden" : 0,
					"source" : [ "obj-32", 0 ]
				}

			}
, 			{
				"patchline" : 				{
					"destination" : [ "obj-8", 0 ],
					"disabled" : 0,
					"hidden" : 0,
					"source" : [ "obj-5", 0 ]
				}

			}
, 			{
				"patchline" : 				{
					"destination" : [ "obj-13", 0 ],
					"disabled" : 0,
					"hidden" : 0,
					"source" : [ "obj-8", 0 ]
				}

			}
, 			{
				"patchline" : 				{
					"destination" : [ "obj-23", 0 ],
					"disabled" : 0,
					"hidden" : 0,
					"source" : [ "obj-8", 0 ]
				}

			}
 ],
		"dependency_cache" : [  ],
		"autosave" : 0,
		"default_bgcolor" : [ 0.223529, 0.164706, 0.254902, 1.0 ],
		"color" : [ 0.976471, 0.909804, 0.792157, 1.0 ],
		"elementcolor" : [ 0.486275, 0.552941, 0.584314, 1.0 ],
		"accentcolor" : [ 0.337255, 0.329412, 0.415686, 1.0 ],
		"textcolor_inverse" : [ 0.976471, 0.909804, 0.792157, 1.0 ],
		"bgfillcolor_type" : "gradient",
		"bgfillcolor_color1" : [ 0.337255, 0.329412, 0.415686, 1.0 ],
		"bgfillcolor_color2" : [ 0.223529, 0.164706, 0.254902, 1.0 ],
		"bgfillcolor_color" : [ 0.290196, 0.309804, 0.301961, 1.0 ],
		"bgfillcolor_angle" : 270.0,
		"bgfillcolor_proportion" : 0.39
	}

}
