#N struct line-label float x float y float z symbol label;
#N canvas 352 50 975 788 16;
#X declare -path lib;
#X obj 147 73 sinusoid;
#X obj 259 74 noise;
#X obj 659 294 meter;
#X obj 768 297 snapshot;
#X obj 52 294 record;
#X text 106 18 right or control-click on any of these for help:;
#X text 34 81 signal;
#X text 23 102 generators:;
#X text 565 99 I/O:;
#X text 30 258 analysis&display:;
#X obj 327 74 constant;
#X text 20 198 modifiers:;
#X obj 151 177 multiply;
#X obj 151 207 switch;
#X obj 631 81 output;
#X obj 756 81 input;
#X obj 255 180 vdelay;
#X obj 53 443 spectrum;
#X obj 377 181 bandpass;
#X obj 514 181 lowpass;
#X obj 514 233 highpass;
#X text 221 745 TBW: save to / read from soundfiles;
#X obj 860 297 pitchamp;
#X obj 771 347 threshold;
#X obj 651 181 between;
#X obj 788 180 samp-hold;
