#N canvas 218 110 389 387 16;
#X floatatom 103 123 7 0 10000 1 peak - -, f 7;
#X obj 24 313 outlet~;
#X obj 104 32 loadbang;
#X obj 24 48 inlet~;
#X floatatom 103 146 7 0 10000 1 "Q" - -, f 7;
#X obj 25 275 vcf~;
#X msg 103 67 1000;
#X obj 41 232 +~;
#X obj 40 193 inlet~;
#X connect 0 0 7 1;
#X connect 2 0 6 0;
#X connect 3 0 5 0;
#X connect 4 0 5 2;
#X connect 5 0 1 0;
#X connect 6 0 0 0;
#X connect 7 0 5 1;
#X connect 8 0 7 0;
#X coords 0 -1 1 1 130 70 1 100 100;
