#N canvas 1 31 389 387 16;
#X floatatom 103 123 7 0 0 1 high - -, f 7;
#X obj 24 313 outlet~;
#X obj 104 32 loadbang;
#X obj 24 48 inlet~;
#X floatatom 103 146 7 0 0 1 low - -, f 7;
#X msg 103 67 1;
#X obj 25 275 clip~;
#X connect 0 0 6 2;
#X connect 2 0 5 0;
#X connect 3 0 6 0;
#X connect 4 0 6 1;
#X connect 5 0 0 0;
#X connect 6 0 1 0;
#X coords 0 -1 1 1 130 70 1 100 100;
