#N canvas 196 336 497 412 16;
#X obj 30 355 dac~;
#X obj 103 122 tgl 20 0 empty empty on/off 24 10 0 16 -262144 -1 -1
0 1;
#X floatatom 103 144 3 0 100 1 gain(dB) - -, f 3;
#X obj 103 267 pack 0 20;
#X obj 240 245 b;
#X msg 240 274 \; pd dsp 1;
#X obj 103 239 dbtorms;
#X obj 278 62 sel 0 1;
#X msg 412 163 set 0;
#X msg 423 129 set 1;
#X obj 278 91 0;
#X obj 103 296 line~;
#X obj 29 250 inlet~;
#X obj 29 321 *~;
#X obj 271 175 moses 1;
#X obj 311 207 f 1;
#X obj 29 279 hip~ 3;
#X connect 1 0 4 0;
#X connect 1 0 7 0;
#X connect 2 0 4 0;
#X connect 2 0 6 0;
#X connect 2 0 14 0;
#X connect 3 0 11 0;
#X connect 4 0 5 0;
#X connect 6 0 3 0;
#X connect 7 0 10 0;
#X connect 7 1 15 0;
#X connect 8 0 1 0;
#X connect 9 0 1 0;
#X connect 10 0 2 0;
#X connect 11 0 13 1;
#X connect 12 0 16 0;
#X connect 13 0 0 0;
#X connect 13 0 0 1;
#X connect 14 0 8 0;
#X connect 14 1 9 0;
#X connect 14 1 15 1;
#X connect 15 0 2 0;
#X connect 16 0 13 0;
#X coords 0 -1 1 1 120 67 1 100 100;
