#N canvas 112 309 827 581 16;
#X obj 65 11 inlet~;
#X floatatom 509 111 6 0 0 1 Hz - -, f 6;
#N canvas 2 52 450 250 (subpatch) 0;
#X array \$0a 4800 float 2;
#X coords 0 1 4800 -1 500 100 2 0 0;
#X restore 102 137 graph;
#X obj 65 67 tabwrite~ \$0a;
#X obj 169 112 bng 20 250 50 0 empty empty rec 23 10 0 16 -262144 -1
-1;
#X obj 237 112 bng 20 250 50 0 empty empty play 23 10 0 16 -262144
-1 -1;
#X obj 414 111 tgl 20 0 empty empty repeat: 24 10 0 16 -262144 -1 -1
0 1;
#X obj 608 138 vradio 20 1 0 5 empty empty empty 0 -8 0 10 -262144
-1 -1 2;
#X text 629 135 10;
#X text 630 176 0.1;
#X text 631 197 0.01;
#X text 631 218 0.001;
#X text 610 111 length:;
#X text 633 155 1 sec;
#X obj 218 496 tabread4~ \$0a;
#X obj 218 427 vline~;
#X obj 218 530 hip~ 3;
#X obj 218 559 outlet~;
#X obj 221 266 metro;
#X obj 457 262 max 0.01;
#X obj 457 291 t b f;
#X obj 476 351 /;
#X msg 414 60 0;
#X obj 369 26 t b b;
#X msg 149 300 stop;
#X obj 148 268 sel 0;
#X obj 578 267 sel 0 1 2 3 4;
#X msg 577 307 10;
#X msg 619 307 1;
#X obj 584 372 samplerate~;
#X obj 575 342 t f b;
#X msg 661 307 10;
#X msg 704 306 100;
#X msg 745 307 1000;
#X obj 633 452 samplerate~;
#X obj 636 422 t b f;
#X obj 511 490 s \$0a;
#X msg 512 457 resize \$1;
#X obj 575 404 *;
#X obj 637 484 /;
#X obj 220 301 samplerate~;
#X obj 220 330 * 10;
#X obj 220 359 + 1;
#X msg 219 391 0 \, \$1 10000;
#X floatatom 490 395 5 0 0 0 - - -, f 5;
#X msg 457 320 1000;
#X obj 571 24 loadbang;
#X msg 571 53 2;
#X obj 65 40 clip~ -1.2 1.2;
#X floatatom 339 110 6 0 100 0 at: - -, f 6;
#X obj 311 338 *;
#X obj 218 462 +~;
#X connect 0 0 48 0;
#X connect 1 0 19 0;
#X connect 4 0 3 0;
#X connect 5 0 23 0;
#X connect 6 0 18 0;
#X connect 6 0 25 0;
#X connect 7 0 26 0;
#X connect 14 0 16 0;
#X connect 15 0 51 0;
#X connect 16 0 17 0;
#X connect 18 0 40 0;
#X connect 19 0 20 0;
#X connect 20 0 45 0;
#X connect 20 1 21 1;
#X connect 21 0 18 1;
#X connect 21 0 44 0;
#X connect 22 0 6 0;
#X connect 23 0 40 0;
#X connect 23 1 22 0;
#X connect 24 0 15 0;
#X connect 25 0 24 0;
#X connect 26 0 27 0;
#X connect 26 1 28 0;
#X connect 26 2 31 0;
#X connect 26 3 32 0;
#X connect 26 4 33 0;
#X connect 27 0 30 0;
#X connect 28 0 30 0;
#X connect 29 0 38 1;
#X connect 30 0 38 0;
#X connect 30 1 29 0;
#X connect 31 0 35 0;
#X connect 32 0 35 0;
#X connect 33 0 35 0;
#X connect 34 0 39 0;
#X connect 35 0 34 0;
#X connect 35 1 39 1;
#X connect 37 0 36 0;
#X connect 38 0 37 0;
#X connect 39 0 37 0;
#X connect 40 0 41 0;
#X connect 40 0 50 0;
#X connect 41 0 42 0;
#X connect 42 0 43 0;
#X connect 43 0 15 0;
#X connect 45 0 21 0;
#X connect 46 0 47 0;
#X connect 47 0 7 0;
#X connect 48 0 3 0;
#X connect 49 0 50 1;
#X connect 50 0 51 1;
#X connect 51 0 14 0;
#X coords 0 -1 1 1 594 140 1 100 100;
