#N canvas 505 488 330 301 16;
#X obj 53 196 osc~;
#X floatatom 103 142 7 0 0 1 Hz - -, f 7;
#X obj 53 167 +~ 0;
#X obj 53 225 outlet~;
#X obj 54 56 inlet~;
#X obj 103 120 bng 20 250 50 0 empty empty reset 23 10 0 16 -262144
-1 -1;
#X msg 165 195 0;
#X connect 0 0 3 0;
#X connect 1 0 2 1;
#X connect 2 0 0 0;
#X connect 4 0 2 0;
#X connect 5 0 6 0;
#X connect 6 0 0 1;
#X coords 0 -1 1 1 100 67 1 100 100;
