#N canvas 1 31 365 425 16;
#X floatatom 103 123 7 0 10000 1 value - -, f 7;
#X obj 25 364 outlet~;
#X obj 130 26 loadbang;
#X obj 24 48 inlet~;
#X floatatom 103 146 7 0.002 10 1 width - -, f 7;
#X obj 24 198 threshold~;
#X msg 129 61 0.1;
#X obj 108 270 delay;
#X obj 25 228 b;
#X obj 25 256 1;
#X obj 26 336 sig~;
#X msg 176 193 set \$1 2 \$1 2;
#X obj 107 298 0;
#X obj 158 235 * 1000;
#X connect 0 0 11 0;
#X connect 2 0 6 0;
#X connect 3 0 5 0;
#X connect 4 0 13 0;
#X connect 5 0 8 0;
#X connect 6 0 4 0;
#X connect 7 0 12 0;
#X connect 8 0 7 0;
#X connect 8 0 9 0;
#X connect 9 0 10 0;
#X connect 10 0 1 0;
#X connect 11 0 5 0;
#X connect 12 0 10 0;
#X connect 13 0 7 1;
#X coords 0 -1 1 1 130 70 1 100 100;
