#N canvas 153 163 872 500 16;
#X obj 53 363 output;
#X text 96 29 threshold: pulse when input signal passes a threshold
;
#X obj 54 154 threshold;
#X obj 55 79 sinusoid;
#X obj 53 329 multiply;
#X obj 137 242 sinusoid;
#X text 193 154 outputs a pulse when the input exceeds "value". The
duration of the pulse is given by "width" in seconds.;
#X text 242 236 to test \, set the frequency of the top sinusoid to
5 and the bottom one to 440 \, for example. If you want to increas
the speed of the top one past 10 \, you'll also want to make the pulse
width less than 0.1 second (or else all the pulses will run together
and the output will always be on.);
#X connect 2 0 4 0;
#X connect 3 0 2 0;
#X connect 4 0 0 0;
#X connect 5 0 4 1;
